G04 ================== begin FILE IDENTIFICATION RECORD ==================*
G04 Layout Name:  D:/PROIECT1BUN/allegro/PROIECT1_OPREACOSMIN_N18.brd*
G04 Film Name:    BOTTOM*
G04 File Format:  Gerber RS274X*
G04 File Origin:  Cadence Allegro 17.2-S025*
G04 Origin Date:  Sun Dec 15 17:20:50 2024*
G04 *
G04 Layer:  ETCH/BOTTOM*
G04 Layer:  PIN/BOTTOM*
G04 Layer:  VIA CLASS/BOTTOM*
G04 *
G04 Offset:    (0.0000 0.0000)*
G04 Mirror:    No*
G04 Mode:      Positive*
G04 Rotation:  0*
G04 FullContactRelief:  No*
G04 UndefLineWidth:     0.1000*
G04 ================== end FILE IDENTIFICATION RECORD ====================*
%FSLAX25Y25*MOMM*%
%IR0*IPPOS*OFA0.00000B0.00000*MIA0B0*SFA1.00000B1.00000*%
%ADD10C,.8636*%
%ADD11C,.4064*%
%ADD12C,.6604*%
%ADD13C,.4572*%
G75*
%LPD*%
G75*
G54D10*
X1025000Y2531000D03*
X1194000Y2640000D03*
X1300260Y2803740D03*
X1345000Y3398000D03*
X1919000Y711000D03*
X2157000Y1711000D03*
X1836000Y2308000D03*
X2370000Y2986000D03*
X2443000Y2464000D03*
X2562000Y2242000D03*
X3116000Y2859000D03*
X2845000Y3483300D03*
X3236500Y2910500D03*
G54D11*
G01X1194000Y2640000D02*
X1348000D01*
X1581500Y2406500D01*
X1934500D01*
X2017000Y2489000D01*
X2418000D01*
X2443000Y2464000D01*
G01X1836000Y2308000D02*
X1773000Y2245000D01*
X1470000D01*
X1358000Y2133000D01*
X1158000D01*
X1025000Y2266000D01*
Y2531000D01*
G01X3116000Y2859000D02*
X3045000D01*
X3017000Y2831000D01*
X2819000D01*
X2764000Y2886000D01*
Y2957000D01*
X2614000Y3107000D01*
X2317000D01*
X2118000Y2908000D01*
X1674000D01*
X1569740Y2803740D01*
X1300260D01*
G01X2157000Y1711000D02*
X2098000Y1652000D01*
Y769000D01*
X2040000Y711000D01*
X1919000D01*
G54D12*
G01X2845000Y3483300D02*
X2678300Y3650000D01*
X2107000D01*
X1975000Y3518000D01*
X1465000D01*
X1345000Y3398000D01*
G01X3236500Y2910500D02*
Y3475380D01*
X3171500Y3540380D01*
X2902080D01*
X2845000Y3483300D01*
G54D13*
G01X2370000Y2986000D02*
Y2915440D01*
X2562000Y2723440D01*
Y2242000D01*
M02*
