G04 ================== begin FILE IDENTIFICATION RECORD ==================*
G04 Layout Name:  D:/PROIECT1BUN/allegro/PROIECT1_OPREACOSMIN_N18.brd*
G04 Film Name:    SPTOP*
G04 File Format:  Gerber RS274X*
G04 File Origin:  Cadence Allegro 17.2-S025*
G04 Origin Date:  Sun Dec 15 16:51:33 2024*
G04 *
G04 Layer:  VIA CLASS/PASTEMASK_TOP*
G04 Layer:  PIN/PASTEMASK_TOP*
G04 Layer:  PACKAGE GEOMETRY/PASTEMASK_TOP*
G04 Layer:  DRC ERROR CLASS/PASTEMASK_TOP*
G04 *
G04 Offset:    (0.0000 0.0000)*
G04 Mirror:    No*
G04 Mode:      Positive*
G04 Rotation:  0*
G04 FullContactRelief:  No*
G04 UndefLineWidth:     0.1000*
G04 ================== end FILE IDENTIFICATION RECORD ====================*
%FSLAX25Y25*MOMM*%
%IR0*IPPOS*OFA0.00000B0.00000*MIA0B0*SFA1.00000B1.00000*%
%ADD15R,.8X1.1*%
%ADD17R,1.1X.8*%
%ADD19R,.8X1.3*%
%ADD18R,1.3X.8*%
%ADD13R,1.1X1.8*%
%ADD21R,1.8X1.1*%
%ADD16C,1.*%
%ADD20R,2.9X1.8*%
%ADD12R,1.85X1.15*%
%ADD14R,1.15X1.85*%
%ADD11R,1.15X1.15*%
%ADD10R,.95X.8*%
%LPD*%
G75*
G54D10*
X528000Y270000D03*
X708000D03*
X435000Y3067000D03*
X255000D03*
X437000Y2583000D03*
X617000D03*
X2915000Y3006000D03*
X3095000D03*
G54D11*
X516000Y533000D03*
X746000D03*
X854000Y2020000D03*
Y2250000D03*
X502000Y3620000D03*
Y3390000D03*
X1606000Y2093000D03*
X1836000D03*
X3055000Y2696000D03*
X2825000D03*
G54D20*
X3485000Y1010000D03*
Y410560D03*
X3501000Y1765000D03*
Y2364440D03*
X3503000Y3292000D03*
Y2692560D03*
G54D12*
X631000Y1098000D03*
X1721000Y1528000D03*
X2940000Y2131000D03*
G54D21*
X3509000Y3582000D03*
Y3782660D03*
G54D13*
X633000Y1484000D03*
X432340D03*
X2303000Y713000D03*
X2503660D03*
G54D14*
X289000Y2135000D03*
X1067000Y3505000D03*
G54D15*
X867140Y3046740D03*
X763000Y2841000D03*
X1630000Y2561000D03*
X971280Y2841000D03*
X2261140Y2362740D03*
X2157000Y2157000D03*
X2365280D03*
X1838280Y2561000D03*
X2264140Y2820740D03*
X2160000Y2615000D03*
X2368280D03*
X1734140Y2766740D03*
G54D16*
X500000Y2800000D03*
X2037000Y500000D03*
G54D17*
X1170260Y579140D03*
X1376000Y475000D03*
Y683280D03*
X1300260Y3070140D03*
X1506000Y2966000D03*
Y3174280D03*
X1919000Y943000D03*
X1713260Y1047140D03*
X1919000Y1151280D03*
X1871260Y3232140D03*
X2077000Y3128000D03*
Y3336280D03*
X2890260Y3305140D03*
X3096000Y3201000D03*
Y3409280D03*
G54D18*
X1159000Y1705000D03*
Y1905000D03*
X2279000Y3776000D03*
Y3576000D03*
X2552000Y3132000D03*
Y2932000D03*
G54D19*
X1396000Y1078000D03*
X1196000D03*
X1363000Y2327000D03*
X1163000D03*
X1551000Y3685000D03*
X1751000D03*
X3001000Y1043000D03*
X2801000D03*
X2910000Y1420000D03*
X3110000D03*
X2929000Y1767000D03*
X3129000D03*
X2426000D03*
X2626000D03*
X2430000Y1420000D03*
X2630000D03*
X2648000Y3379000D03*
X2448000D03*
X3014000Y3705000D03*
X2814000D03*
X3383000Y1399000D03*
X3583000D03*
M02*
