G04 ================== begin FILE IDENTIFICATION RECORD ==================*
G04 Layout Name:  D:/PROIECT1BUN/allegro/PROIECT1_OPREACOSMIN_N18.brd*
G04 Film Name:    SSTOP*
G04 File Format:  Gerber RS274X*
G04 File Origin:  Cadence Allegro 17.2-S025*
G04 Origin Date:  Sun Dec 15 16:52:51 2024*
G04 *
G04 Layer:  USER PART NUMBER/SILKSCREEN_TOP*
G04 Layer:  TOLERANCE/SILKSCREEN_TOP*
G04 Layer:  REF DES/SILKSCREEN_TOP*
G04 Layer:  PACKAGE GEOMETRY/SILKSCREEN_TOP*
G04 Layer:  DEVICE TYPE/SILKSCREEN_TOP*
G04 Layer:  COMPONENT VALUE/SILKSCREEN_TOP*
G04 Layer:  BOARD GEOMETRY/SILKSCREEN_TOP*
G04 *
G04 Offset:    (0.0000 0.0000)*
G04 Mirror:    No*
G04 Mode:      Positive*
G04 Rotation:  0*
G04 FullContactRelief:  No*
G04 UndefLineWidth:     0.1000*
G04 ================== end FILE IDENTIFICATION RECORD ====================*
%FSLAX25Y25*MOMM*%
%IR0*IPPOS*OFA0.00000B0.00000*MIA0B0*SFA1.00000B1.00000*%
%ADD10C,.2*%
%ADD11C,.15*%
%ADD12C,.1524*%
%ADD13C,.1*%
G75*
%LPD*%
G75*
G54D10*
G01X746000Y815500D02*
X521000D01*
G01X631000Y930500D02*
Y700500D01*
G01X781000Y815500D02*
G03X631000Y965500I-150000J0D01*
G03X481000Y810500I0J-150081D01*
G03X631000Y665500I149834J4915D01*
G03X781000Y815500I0J150000D01*
G01X656000Y565500D02*
X606000D01*
G01X491000Y1065500D02*
X381000D01*
Y565500D01*
X411000D01*
G01X771000Y1065500D02*
X881000D01*
Y565500D01*
X851000D01*
G01X571500Y2250000D02*
Y2025000D01*
G01X456500Y2135000D02*
X686500D01*
G01X571500Y2285000D02*
G03X421500Y2135000I0J-150000D01*
G03X576500Y1985000I150081J0D01*
G03X721500Y2135000I-4915J149834D01*
G03X571500Y2285000I-150000J0D01*
G01X821500Y2160000D02*
Y2110000D01*
G01X321500Y1995000D02*
Y1885000D01*
X821500D01*
Y1915000D01*
G01X321500Y2275000D02*
Y2385000D01*
X821500D01*
Y2355000D01*
G01X1034500Y3365000D02*
Y3255000D01*
X534500D01*
Y3285000D01*
G01X784500Y3390000D02*
Y3615000D01*
G01X899500Y3505000D02*
X669500D01*
G01X784500Y3355000D02*
G03X934500Y3505000I0J150000D01*
G03X779500Y3655000I-150081J0D01*
G03X634500Y3505000I4915J-149834D01*
G03X784500Y3355000I150000J0D01*
G01X534500Y3480000D02*
Y3530000D01*
G01X1034500Y3645000D02*
Y3755000D01*
X534500D01*
Y3725000D01*
G01X1571000Y1810500D02*
G03X1721000Y1660500I150000J0D01*
G03X1871000Y1815500I0J150081D01*
G03X1721000Y1960500I-149834J-4915D01*
G03X1571000Y1810500I0J-150000D01*
G01X1581000Y1560500D02*
X1471000D01*
Y2060500D01*
X1501000D01*
G01X1296000Y1023000D02*
Y1133000D01*
G01X1104000Y1805000D02*
X1214000D01*
G01X1263000Y2272000D02*
Y2382000D01*
G01X1721000Y1695500D02*
Y1925500D01*
G01X1861000Y1560500D02*
X1971000D01*
Y2060500D01*
X1941000D01*
G01X1606000Y1810500D02*
X1831000D01*
G01X1696000Y2060500D02*
X1746000D01*
G01X2334000Y3676000D02*
X2224000D01*
G01X1651000Y3630000D02*
Y3740000D01*
G01X3010000Y1475000D02*
Y1365000D01*
G01X3029000Y1822000D02*
Y1712000D01*
G01X2901000Y988000D02*
Y1098000D01*
G01X2526000Y1822000D02*
Y1712000D01*
G01X2530000Y1475000D02*
Y1365000D01*
G01X2825000Y2413500D02*
X3050000D01*
G01X2940000Y2298500D02*
Y2528500D01*
G01X2790000Y2413500D02*
G03X2940000Y2263500I150000J0D01*
G03X3090000Y2418500I0J150081D01*
G03X2940000Y2563500I-149834J-4915D01*
G03X2790000Y2413500I0J-150000D01*
G01X3080000Y2163500D02*
X3190000D01*
Y2663500D01*
X3160000D01*
G01X2800000Y2163500D02*
X2690000D01*
Y2663500D01*
X2720000D01*
G01X2915000D02*
X2965000D01*
G01X2607000Y3032000D02*
X2497000D01*
G01X2548000Y3324000D02*
Y3434000D01*
G01X2914000Y3650000D02*
Y3760000D01*
G01X3483000Y1454000D02*
Y1344000D01*
G54D11*
G01X900670Y288000D02*
X905670Y294000D01*
X909000Y301000D01*
Y309000D01*
X904000Y318000D01*
X895670Y325000D01*
X885670Y330000D01*
X869000Y334000D01*
X854000Y335000D01*
X839000Y333000D01*
X829000Y330000D01*
X819000Y324000D01*
X812330Y317000D01*
X809000Y310000D01*
Y303000D01*
X812330Y296000D01*
X817330Y290000D01*
X824000Y285000D01*
G01X809000Y218000D02*
X909000D01*
X837330Y255000D01*
Y205000D01*
G01X486770Y1204000D02*
Y1267500D01*
X503030D01*
X508450Y1264320D01*
X512510Y1256920D01*
X513870Y1248450D01*
X512510Y1239980D01*
X509130Y1233630D01*
X503030Y1230460D01*
X486770D01*
G01X556200Y1204000D02*
Y1267500D01*
X548070Y1254800D01*
G01Y1204000D02*
X564330D01*
G01X416970Y1638000D02*
Y1788500D01*
X464380D01*
X483340Y1780970D01*
X497570Y1770940D01*
X509420Y1755890D01*
X518900Y1738330D01*
X521270Y1713250D01*
X518900Y1688170D01*
X509420Y1670610D01*
X497570Y1655550D01*
X483340Y1645520D01*
X464380Y1638000D01*
X416970D01*
G01X607470Y1668100D02*
X621690Y1650540D01*
X640650Y1640510D01*
X661990Y1638000D01*
X680960Y1640510D01*
X699920Y1653050D01*
X711770Y1668100D01*
X714140Y1683150D01*
X709400Y1700700D01*
X692810Y1713250D01*
X676210Y1718270D01*
X654880D01*
G01X676210D02*
X690440Y1725790D01*
X702290Y1738330D01*
X707030Y1753380D01*
X702290Y1768430D01*
X690440Y1780970D01*
X669100Y1788500D01*
X647770Y1785990D01*
X626430Y1775960D01*
G01X522770Y2421000D02*
Y2484500D01*
X539030D01*
X544450Y2481320D01*
X548510Y2473920D01*
X549870Y2465450D01*
X548510Y2456980D01*
X545130Y2450630D01*
X539030Y2447460D01*
X522770D01*
G01X577300Y2433700D02*
X581360Y2426290D01*
X586780Y2422060D01*
X592880Y2421000D01*
X598300Y2422060D01*
X603720Y2427350D01*
X607100Y2433700D01*
X607780Y2440050D01*
X606420Y2447460D01*
X601680Y2452750D01*
X596940Y2454870D01*
X590850D01*
G01X596940D02*
X601010Y2458040D01*
X604390Y2463330D01*
X605750Y2469680D01*
X604390Y2476030D01*
X601010Y2481320D01*
X594910Y2484500D01*
X588810Y2483440D01*
X582720Y2479210D01*
G01X273000Y3252670D02*
X267000Y3257670D01*
X260000Y3261000D01*
X252000D01*
X243000Y3256000D01*
X236000Y3247670D01*
X231000Y3237670D01*
X227000Y3221000D01*
X226000Y3206000D01*
X228000Y3191000D01*
X231000Y3181000D01*
X237000Y3171000D01*
X244000Y3164330D01*
X251000Y3161000D01*
X258000D01*
X265000Y3164330D01*
X271000Y3169330D01*
X276000Y3176000D01*
G01X312000Y3244330D02*
X318000Y3254330D01*
X325000Y3259330D01*
X333000Y3261000D01*
X343000Y3257670D01*
X350000Y3249330D01*
X352000Y3239330D01*
X351000Y3229330D01*
X347000Y3221000D01*
X327000Y3204330D01*
X318000Y3192670D01*
X312000Y3176000D01*
X310000Y3161000D01*
X352000D01*
G01X828670Y2605000D02*
X833670Y2611000D01*
X837000Y2618000D01*
Y2626000D01*
X832000Y2635000D01*
X823670Y2642000D01*
X813670Y2647000D01*
X797000Y2651000D01*
X782000Y2652000D01*
X767000Y2650000D01*
X757000Y2647000D01*
X747000Y2641000D01*
X740330Y2634000D01*
X737000Y2627000D01*
Y2620000D01*
X740330Y2613000D01*
X745330Y2607000D01*
X752000Y2602000D01*
G01Y2569000D02*
X743670Y2563000D01*
X738670Y2556000D01*
X737000Y2547000D01*
X740330Y2538000D01*
X747000Y2531000D01*
X758670Y2526000D01*
X772000Y2525000D01*
X785330Y2527000D01*
X793670Y2532000D01*
X800330Y2539000D01*
X802000Y2546000D01*
X800330Y2553000D01*
X793670Y2562000D01*
X837000Y2559000D01*
Y2532000D01*
G01X718770Y3797000D02*
Y3860500D01*
X735030D01*
X740450Y3857320D01*
X744510Y3849920D01*
X745870Y3841450D01*
X744510Y3832980D01*
X741130Y3826630D01*
X735030Y3823460D01*
X718770D01*
G01X775330Y3849920D02*
X779390Y3856270D01*
X784140Y3859440D01*
X789550Y3860500D01*
X796330Y3858380D01*
X801070Y3853090D01*
X802420Y3846740D01*
X801750Y3840390D01*
X799040Y3835100D01*
X785490Y3824520D01*
X779390Y3817110D01*
X775330Y3806520D01*
X773980Y3797000D01*
X802420D01*
G01X1518320Y148000D02*
X1512900Y149060D01*
X1508160Y153290D01*
X1504100Y159640D01*
X1501390Y167050D01*
X1500030Y175520D01*
Y183980D01*
X1501390Y192450D01*
X1504100Y199860D01*
X1508160Y206210D01*
X1512900Y210440D01*
X1518320Y211500D01*
X1523740Y210440D01*
X1528480Y206210D01*
X1532540Y199860D01*
X1535250Y192450D01*
X1536610Y183980D01*
Y175520D01*
X1535250Y167050D01*
X1532540Y159640D01*
X1528480Y153290D01*
X1523740Y149060D01*
X1518320Y148000D01*
G01X1562010Y126830D02*
Y190330D01*
G01Y180810D02*
X1565390Y186100D01*
X1568780Y189270D01*
X1574200Y190330D01*
X1578940Y189270D01*
X1583680Y183980D01*
X1585720Y176570D01*
X1586390Y169170D01*
X1585720Y161760D01*
X1583680Y154350D01*
X1579620Y150120D01*
X1574200Y148000D01*
X1569460Y149060D01*
X1564720Y152230D01*
X1562010Y156460D01*
G01X1620600Y148000D02*
Y190330D01*
G01Y181870D02*
X1623980Y186100D01*
X1627370Y189270D01*
X1632110Y190330D01*
X1635500Y189270D01*
X1639560Y186100D01*
G01X1675800Y176570D02*
X1697480D01*
X1695440Y183980D01*
X1692060Y188220D01*
X1687310Y190330D01*
X1682570Y189270D01*
X1678510Y186100D01*
X1675800Y178690D01*
X1674440Y172340D01*
Y165990D01*
X1675800Y159640D01*
X1679190Y153290D01*
X1683250Y149060D01*
X1687990Y148000D01*
X1692730Y150120D01*
X1697480Y156460D01*
G01X1754030Y148000D02*
Y190330D01*
G01Y182930D02*
X1751320Y187160D01*
X1747260Y189270D01*
X1742520Y190330D01*
X1737780Y188220D01*
X1733710Y183980D01*
X1731000Y177630D01*
X1729650Y169170D01*
X1731000Y160700D01*
X1733710Y154350D01*
X1737780Y150120D01*
X1742520Y148000D01*
X1747260Y149060D01*
X1751320Y152230D01*
X1754030Y156460D01*
G01X1868500Y206210D02*
X1864440Y209380D01*
X1859700Y211500D01*
X1854280D01*
X1848180Y208320D01*
X1843440Y203030D01*
X1840050Y196680D01*
X1837340Y186100D01*
X1836670Y176570D01*
X1838020Y167050D01*
X1840050Y160700D01*
X1844120Y154350D01*
X1848860Y150120D01*
X1853600Y148000D01*
X1858340D01*
X1863080Y150120D01*
X1867150Y153290D01*
X1870530Y157520D01*
G01X1909480Y148000D02*
X1905420Y149060D01*
X1901350Y153290D01*
X1898640Y160700D01*
X1897290Y169170D01*
X1898640Y177630D01*
X1901350Y185040D01*
X1905420Y189270D01*
X1909480Y190330D01*
X1913540Y189270D01*
X1917610Y185040D01*
X1920320Y177630D01*
X1921000Y169170D01*
X1920320Y160700D01*
X1917610Y153290D01*
X1913540Y149060D01*
X1909480Y148000D01*
G01X1955200Y155410D02*
X1958590Y151170D01*
X1963330Y148000D01*
X1967390D01*
X1971460Y150120D01*
X1974170Y153290D01*
X1975520Y157520D01*
X1974840Y163880D01*
X1972130Y167050D01*
X1959940Y173400D01*
X1957230Y180810D01*
X1958590Y186100D01*
X1961300Y189270D01*
X1965360Y190330D01*
X1969420Y189270D01*
X1973490Y186100D01*
G01X2000920Y148000D02*
Y190330D01*
G01Y178690D02*
X2002950Y183980D01*
X2006340Y188220D01*
X2011080Y190330D01*
X2015820Y188220D01*
X2019210Y183980D01*
X2021240Y178690D01*
Y148000D01*
G01Y178690D02*
X2023270Y183980D01*
X2026660Y188220D01*
X2031400Y190330D01*
X2036140Y188220D01*
X2039530Y183980D01*
X2041560Y177630D01*
Y148000D01*
G01X2077120Y190330D02*
Y148000D01*
G01Y207270D02*
X2075770Y208320D01*
Y210440D01*
X2077120Y211500D01*
X2078470Y210440D01*
Y208320D01*
X2077120Y207270D01*
G01X2121480Y148000D02*
Y190330D01*
G01Y179750D02*
X2124190Y185040D01*
X2128260Y189270D01*
X2133680Y190330D01*
X2138420Y189270D01*
X2142480Y185040D01*
X2144520Y177630D01*
Y148000D01*
G01X2252890D02*
Y211500D01*
X2227830Y165990D01*
X2261690D01*
G01X2285740Y160700D02*
X2289800Y153290D01*
X2295220Y149060D01*
X2301320Y148000D01*
X2306740Y149060D01*
X2312160Y154350D01*
X2315540Y160700D01*
X2316220Y167050D01*
X2314860Y174460D01*
X2310120Y179750D01*
X2305380Y181870D01*
X2299290D01*
G01X2305380D02*
X2309450Y185040D01*
X2312830Y190330D01*
X2314190Y196680D01*
X2312830Y203030D01*
X2309450Y208320D01*
X2303350Y211500D01*
X2297250Y210440D01*
X2291160Y206210D01*
G01X2356520Y148000D02*
Y211500D01*
X2348390Y198800D01*
G01Y148000D02*
X2364650D01*
G01X2425950D02*
X2398850D01*
Y211500D01*
X2425950D01*
G01X2415110Y180810D02*
X2398850D01*
G01X2510610Y148000D02*
Y211500D01*
X2526870D01*
X2532290Y208320D01*
X2536350Y200920D01*
X2537710Y192450D01*
X2536350Y183980D01*
X2532970Y177630D01*
X2526870Y174460D01*
X2510610D01*
G01X2580040Y148000D02*
Y211500D01*
X2571910Y198800D01*
G01Y148000D02*
X2588170D01*
G01X2678930Y200920D02*
X2682990Y207270D01*
X2687740Y210440D01*
X2693150Y211500D01*
X2699930Y209380D01*
X2704670Y204090D01*
X2706020Y197740D01*
X2705350Y191390D01*
X2702640Y186100D01*
X2689090Y175520D01*
X2682990Y168110D01*
X2678930Y157520D01*
X2677580Y148000D01*
X2706020D01*
G01X2747680Y211500D02*
X2742260Y209380D01*
X2738200Y204090D01*
X2735490Y197740D01*
X2733460Y189270D01*
X2732780Y179750D01*
X2733460Y170220D01*
X2735490Y161760D01*
X2738200Y155410D01*
X2742260Y150120D01*
X2747680Y148000D01*
X2753100Y150120D01*
X2757160Y155410D01*
X2759870Y161760D01*
X2761900Y170220D01*
X2762580Y179750D01*
X2761900Y189270D01*
X2759870Y197740D01*
X2757160Y204090D01*
X2753100Y209380D01*
X2747680Y211500D01*
G01X2790690Y200920D02*
X2794750Y207270D01*
X2799500Y210440D01*
X2804910Y211500D01*
X2811690Y209380D01*
X2816430Y204090D01*
X2817780Y197740D01*
X2817110Y191390D01*
X2814400Y186100D01*
X2800850Y175520D01*
X2794750Y168110D01*
X2790690Y157520D01*
X2789340Y148000D01*
X2817780D01*
G01X2867570D02*
Y211500D01*
X2842510Y165990D01*
X2876370D01*
G01X2906510Y169170D02*
X2924130D01*
G01X2958330Y200920D02*
X2962390Y207270D01*
X2967140Y210440D01*
X2972550Y211500D01*
X2979330Y209380D01*
X2984070Y204090D01*
X2985420Y197740D01*
X2984750Y191390D01*
X2982040Y186100D01*
X2968490Y175520D01*
X2962390Y168110D01*
X2958330Y157520D01*
X2956980Y148000D01*
X2985420D01*
G01X3027080Y211500D02*
X3021660Y209380D01*
X3017600Y204090D01*
X3014890Y197740D01*
X3012860Y189270D01*
X3012180Y179750D01*
X3012860Y170220D01*
X3014890Y161760D01*
X3017600Y155410D01*
X3021660Y150120D01*
X3027080Y148000D01*
X3032500Y150120D01*
X3036560Y155410D01*
X3039270Y161760D01*
X3041300Y170220D01*
X3041980Y179750D01*
X3041300Y189270D01*
X3039270Y197740D01*
X3036560Y204090D01*
X3032500Y209380D01*
X3027080Y211500D01*
G01X3070090Y200920D02*
X3074150Y207270D01*
X3078900Y210440D01*
X3084310Y211500D01*
X3091090Y209380D01*
X3095830Y204090D01*
X3097180Y197740D01*
X3096510Y191390D01*
X3093800Y186100D01*
X3080250Y175520D01*
X3074150Y168110D01*
X3070090Y157520D01*
X3068740Y148000D01*
X3097180D01*
G01X3123940Y157520D02*
X3128000Y152230D01*
X3132740Y149060D01*
X3138840Y148000D01*
X3144940Y150120D01*
X3149680Y154350D01*
X3153060Y161760D01*
X3153740Y170220D01*
X3152390Y178690D01*
X3149000Y183980D01*
X3144260Y188220D01*
X3139520Y189270D01*
X3134780Y188220D01*
X3128680Y183980D01*
X3130710Y211500D01*
X3149000D01*
G01X1268260Y888000D02*
Y761000D01*
G01X1231260Y888000D02*
X1305260D01*
G01X1397800Y761000D02*
Y888000D01*
X1378500Y862600D01*
G01Y761000D02*
X1417100D01*
G01X1277000Y1189000D02*
Y1289000D01*
X1302000D01*
X1310000Y1284000D01*
X1315000Y1277330D01*
X1317000Y1264000D01*
X1315000Y1250670D01*
X1309000Y1242330D01*
X1302000Y1237330D01*
X1277000D01*
G01X1302000D02*
X1317000Y1189000D01*
G01X1389000D02*
Y1289000D01*
X1352000Y1217330D01*
X1402000D01*
G01X1104000Y1995000D02*
Y2095000D01*
X1129000D01*
X1137000Y2090000D01*
X1142000Y2083330D01*
X1144000Y2070000D01*
X1142000Y2056670D01*
X1136000Y2048330D01*
X1129000Y2043330D01*
X1104000D01*
G01X1129000D02*
X1144000Y1995000D01*
G01X1204000D02*
X1211000Y1996670D01*
X1219000Y2001670D01*
X1224000Y2010000D01*
X1226000Y2021670D01*
X1224000Y2033330D01*
X1218000Y2043330D01*
X1209000Y2048330D01*
X1199000D01*
X1193000Y2051670D01*
X1188000Y2060000D01*
X1186000Y2071670D01*
X1189000Y2083330D01*
X1196000Y2091670D01*
X1204000Y2095000D01*
X1212000Y2091670D01*
X1219000Y2083330D01*
X1222000Y2071670D01*
X1220000Y2060000D01*
X1215000Y2051670D01*
X1209000Y2048330D01*
X1199000D01*
X1190000Y2043330D01*
X1184000Y2033330D01*
X1182000Y2021670D01*
X1184000Y2010000D01*
X1189000Y2001670D01*
X1197000Y1996670D01*
X1204000Y1995000D01*
G01X1202000Y2441000D02*
Y2541000D01*
X1227000D01*
X1235000Y2536000D01*
X1240000Y2529330D01*
X1242000Y2516000D01*
X1240000Y2502670D01*
X1234000Y2494330D01*
X1227000Y2489330D01*
X1202000D01*
G01X1227000D02*
X1242000Y2441000D01*
G01X1280000Y2456000D02*
X1286000Y2447670D01*
X1293000Y2442670D01*
X1302000Y2441000D01*
X1311000Y2444330D01*
X1318000Y2451000D01*
X1323000Y2462670D01*
X1324000Y2476000D01*
X1322000Y2489330D01*
X1317000Y2497670D01*
X1310000Y2504330D01*
X1303000Y2506000D01*
X1296000Y2504330D01*
X1287000Y2497670D01*
X1290000Y2541000D01*
X1317000D01*
G01X1506260Y3249000D02*
X1493390Y3251120D01*
X1482130Y3259580D01*
X1472480Y3272280D01*
X1466040Y3287100D01*
X1462820Y3304030D01*
Y3320970D01*
X1466040Y3337900D01*
X1472480Y3352720D01*
X1482130Y3365420D01*
X1493390Y3373880D01*
X1506260Y3376000D01*
X1519130Y3373880D01*
X1530390Y3365420D01*
X1540040Y3352720D01*
X1546480Y3337900D01*
X1549700Y3320970D01*
Y3304030D01*
X1546480Y3287100D01*
X1540040Y3272280D01*
X1530390Y3259580D01*
X1519130Y3251120D01*
X1506260Y3249000D01*
G01X1519130Y3282870D02*
X1538430Y3249000D01*
G01X1605230Y3301910D02*
X1616500Y3316730D01*
X1626150Y3325200D01*
X1639020Y3329430D01*
X1650280Y3325200D01*
X1658320Y3316730D01*
X1664760Y3304030D01*
X1666370Y3289220D01*
X1664760Y3276510D01*
X1658320Y3263810D01*
X1648670Y3253230D01*
X1637410Y3249000D01*
X1624540Y3253230D01*
X1613280Y3265930D01*
X1606840Y3284980D01*
X1605230Y3306150D01*
X1608450Y3333660D01*
X1613280Y3348490D01*
X1621320Y3363300D01*
X1632580Y3373880D01*
X1643840Y3376000D01*
X1655100Y3371770D01*
X1663150Y3361180D01*
G01X1055100Y2940060D02*
X1057220Y2952930D01*
X1065680Y2964190D01*
X1078380Y2973840D01*
X1093200Y2980280D01*
X1110130Y2983500D01*
X1127070D01*
X1144000Y2980280D01*
X1158820Y2973840D01*
X1171520Y2964190D01*
X1179980Y2952930D01*
X1182100Y2940060D01*
X1179980Y2927190D01*
X1171520Y2915930D01*
X1158820Y2906280D01*
X1144000Y2899840D01*
X1127070Y2896620D01*
X1110130D01*
X1093200Y2899840D01*
X1078380Y2906280D01*
X1065680Y2915930D01*
X1057220Y2927190D01*
X1055100Y2940060D01*
G01X1088970Y2927190D02*
X1055100Y2907890D01*
G01Y2791220D02*
X1182100D01*
X1091080Y2850740D01*
Y2770300D01*
G01X1597000Y3785000D02*
Y3885000D01*
X1622000D01*
X1630000Y3880000D01*
X1635000Y3873330D01*
X1637000Y3860000D01*
X1635000Y3846670D01*
X1629000Y3838330D01*
X1622000Y3833330D01*
X1597000D01*
G01X1622000D02*
X1637000Y3785000D01*
G01X1695000D02*
X1697000Y3806670D01*
X1700000Y3825000D01*
X1704000Y3841670D01*
X1709000Y3860000D01*
X1717000Y3885000D01*
X1677000D01*
G01X2232970Y879000D02*
Y1029500D01*
X2280380D01*
X2299340Y1021970D01*
X2313570Y1011940D01*
X2325420Y996890D01*
X2334900Y979330D01*
X2337270Y954250D01*
X2334900Y929170D01*
X2325420Y911610D01*
X2313570Y896550D01*
X2299340Y886520D01*
X2280380Y879000D01*
X2232970D01*
G01X2470880D02*
X2475620Y911610D01*
X2482730Y939200D01*
X2492210Y964280D01*
X2504070Y991870D01*
X2523030Y1029500D01*
X2428210D01*
G01X1819940Y1235100D02*
X1807070Y1237220D01*
X1795810Y1245680D01*
X1786160Y1258380D01*
X1779720Y1273200D01*
X1776500Y1290130D01*
Y1307070D01*
X1779720Y1324000D01*
X1786160Y1338820D01*
X1795810Y1351520D01*
X1807070Y1359980D01*
X1819940Y1362100D01*
X1832810Y1359980D01*
X1844070Y1351520D01*
X1853720Y1338820D01*
X1860160Y1324000D01*
X1863380Y1307070D01*
Y1290130D01*
X1860160Y1273200D01*
X1853720Y1258380D01*
X1844070Y1245680D01*
X1832810Y1237220D01*
X1819940Y1235100D01*
G01X1832810Y1268970D02*
X1852110Y1235100D01*
G01X1918910Y1340930D02*
X1928570Y1353630D01*
X1939830Y1359980D01*
X1952700Y1362100D01*
X1968780Y1357870D01*
X1980050Y1347280D01*
X1983260Y1334590D01*
X1981650Y1321880D01*
X1975220Y1311300D01*
X1943050Y1290130D01*
X1928570Y1275320D01*
X1918910Y1254150D01*
X1915700Y1235100D01*
X1983260D01*
G01X2005260Y2346000D02*
X1992390Y2348120D01*
X1981130Y2356580D01*
X1971480Y2369280D01*
X1965040Y2384100D01*
X1961820Y2401030D01*
Y2417970D01*
X1965040Y2434900D01*
X1971480Y2449720D01*
X1981130Y2462420D01*
X1992390Y2470880D01*
X2005260Y2473000D01*
X2018130Y2470880D01*
X2029390Y2462420D01*
X2039040Y2449720D01*
X2045480Y2434900D01*
X2048700Y2417970D01*
Y2401030D01*
X2045480Y2384100D01*
X2039040Y2369280D01*
X2029390Y2356580D01*
X2018130Y2348120D01*
X2005260Y2346000D01*
G01X2018130Y2379870D02*
X2037430Y2346000D01*
G01X2134800D02*
X2146060Y2348120D01*
X2158930Y2354460D01*
X2166970Y2365050D01*
X2170190Y2379870D01*
X2166970Y2394680D01*
X2157320Y2407380D01*
X2142840Y2413730D01*
X2126760D01*
X2117100Y2417970D01*
X2109060Y2428550D01*
X2105840Y2443370D01*
X2110670Y2458180D01*
X2121930Y2468770D01*
X2134800Y2473000D01*
X2147670Y2468770D01*
X2158930Y2458180D01*
X2163760Y2443370D01*
X2160540Y2428550D01*
X2152500Y2417970D01*
X2142840Y2413730D01*
X2126760D01*
X2112280Y2407380D01*
X2102630Y2394680D01*
X2099410Y2379870D01*
X2102630Y2365050D01*
X2110670Y2354460D01*
X2123540Y2348120D01*
X2134800Y2346000D01*
G01X1901000Y2682740D02*
X1903120Y2695610D01*
X1911580Y2706870D01*
X1924280Y2716520D01*
X1939100Y2722960D01*
X1956030Y2726180D01*
X1972970D01*
X1989900Y2722960D01*
X2004720Y2716520D01*
X2017420Y2706870D01*
X2025880Y2695610D01*
X2028000Y2682740D01*
X2025880Y2669870D01*
X2017420Y2658610D01*
X2004720Y2648960D01*
X1989900Y2642520D01*
X1972970Y2639300D01*
X1956030D01*
X1939100Y2642520D01*
X1924280Y2648960D01*
X1911580Y2658610D01*
X1903120Y2669870D01*
X1901000Y2682740D01*
G01X1934870Y2669870D02*
X1901000Y2650570D01*
G01X1926400Y2588590D02*
X1911580Y2578940D01*
X1903120Y2566070D01*
X1901000Y2551590D01*
X1903120Y2538720D01*
X1913700Y2525850D01*
X1926400Y2517810D01*
X1939100Y2516200D01*
X1953910Y2519420D01*
X1964500Y2530680D01*
X1968730Y2541940D01*
Y2556420D01*
G01Y2541940D02*
X1975080Y2532290D01*
X1985660Y2524240D01*
X1998370Y2521030D01*
X2011070Y2524240D01*
X2021650Y2532290D01*
X2028000Y2546770D01*
X2025880Y2561240D01*
X2017420Y2575720D01*
G01X2008000Y1919230D02*
X2071500D01*
Y1902970D01*
X2068320Y1897550D01*
X2060920Y1893490D01*
X2052450Y1892130D01*
X2043980Y1893490D01*
X2037630Y1896870D01*
X2034460Y1902970D01*
Y1919230D01*
G01X2008000Y1841670D02*
X2071500D01*
X2025990Y1866730D01*
Y1832870D01*
G01X1977940Y3420100D02*
X1965070Y3422220D01*
X1953810Y3430680D01*
X1944160Y3443380D01*
X1937720Y3458200D01*
X1934500Y3475130D01*
Y3492070D01*
X1937720Y3509000D01*
X1944160Y3523820D01*
X1953810Y3536520D01*
X1965070Y3544980D01*
X1977940Y3547100D01*
X1990810Y3544980D01*
X2002070Y3536520D01*
X2011720Y3523820D01*
X2018160Y3509000D01*
X2021380Y3492070D01*
Y3475130D01*
X2018160Y3458200D01*
X2011720Y3443380D01*
X2002070Y3430680D01*
X1990810Y3422220D01*
X1977940Y3420100D01*
G01X1990810Y3453970D02*
X2010110Y3420100D01*
G01X2072090Y3439150D02*
X2081740Y3428560D01*
X2093000Y3422220D01*
X2107480Y3420100D01*
X2121960Y3424330D01*
X2133220Y3432800D01*
X2141260Y3447610D01*
X2142870Y3464550D01*
X2139650Y3481480D01*
X2131610Y3492070D01*
X2120350Y3500530D01*
X2109090Y3502650D01*
X2097830Y3500530D01*
X2083350Y3492070D01*
X2088180Y3547100D01*
X2131610D01*
G01X2392000Y3755000D02*
X2492000D01*
Y3730000D01*
X2487000Y3722000D01*
X2480330Y3717000D01*
X2467000Y3715000D01*
X2453670Y3717000D01*
X2445330Y3723000D01*
X2440330Y3730000D01*
Y3755000D01*
G01Y3730000D02*
X2392000Y3715000D01*
G01X2433660Y3674000D02*
X2445330Y3667000D01*
X2452000Y3661000D01*
X2455330Y3653000D01*
X2452000Y3646000D01*
X2445330Y3641000D01*
X2435330Y3637000D01*
X2423670Y3636000D01*
X2413670Y3637000D01*
X2403660Y3641000D01*
X2395330Y3647000D01*
X2392000Y3654000D01*
X2395330Y3662000D01*
X2405330Y3669000D01*
X2420330Y3673000D01*
X2437000Y3674000D01*
X2458660Y3672000D01*
X2470330Y3669000D01*
X2482000Y3664000D01*
X2490330Y3657000D01*
X2492000Y3650000D01*
X2488670Y3643000D01*
X2480330Y3638000D01*
G01X2960000Y1529000D02*
Y1629000D01*
X2985000D01*
X2993000Y1624000D01*
X2998000Y1617330D01*
X3000000Y1604000D01*
X2998000Y1590670D01*
X2992000Y1582330D01*
X2985000Y1577330D01*
X2960000D01*
G01X2985000D02*
X3000000Y1529000D01*
G01X3040000Y1629000D02*
Y1529000D01*
X3080000D01*
G01X3121000Y1612330D02*
X3127000Y1622330D01*
X3134000Y1627330D01*
X3142000Y1629000D01*
X3152000Y1625670D01*
X3159000Y1617330D01*
X3161000Y1607330D01*
X3160000Y1597330D01*
X3156000Y1589000D01*
X3136000Y1572330D01*
X3127000Y1560670D01*
X3121000Y1544000D01*
X3119000Y1529000D01*
X3161000D01*
G01X2802000Y1159000D02*
Y1259000D01*
X2827000D01*
X2835000Y1254000D01*
X2840000Y1247330D01*
X2842000Y1234000D01*
X2840000Y1220670D01*
X2834000Y1212330D01*
X2827000Y1207330D01*
X2802000D01*
G01X2827000D02*
X2842000Y1159000D01*
G01X2880000D02*
Y1259000D01*
X2900000D01*
X2908000Y1254000D01*
X2914000Y1247330D01*
X2919000Y1237330D01*
X2923000Y1225660D01*
X2924000Y1209000D01*
X2923000Y1192330D01*
X2919000Y1180670D01*
X2914000Y1170660D01*
X2908000Y1164000D01*
X2900000Y1159000D01*
X2880000D01*
G01X2980000D02*
X2982000Y1180670D01*
X2985000Y1199000D01*
X2989000Y1215670D01*
X2994000Y1234000D01*
X3002000Y1259000D01*
X2962000D01*
G01X2431000Y1539000D02*
Y1639000D01*
X2456000D01*
X2464000Y1634000D01*
X2469000Y1627330D01*
X2471000Y1614000D01*
X2469000Y1600670D01*
X2463000Y1592330D01*
X2456000Y1587330D01*
X2431000D01*
G01X2456000D02*
X2471000Y1539000D01*
G01X2512000Y1622330D02*
X2518000Y1632330D01*
X2525000Y1637330D01*
X2533000Y1639000D01*
X2543000Y1635670D01*
X2550000Y1627330D01*
X2552000Y1617330D01*
X2551000Y1607330D01*
X2547000Y1599000D01*
X2527000Y1582330D01*
X2518000Y1570670D01*
X2512000Y1554000D01*
X2510000Y1539000D01*
X2552000D01*
G01X2922000Y1878000D02*
Y1978000D01*
X2947000D01*
X2955000Y1973000D01*
X2960000Y1966330D01*
X2962000Y1953000D01*
X2960000Y1939670D01*
X2954000Y1931330D01*
X2947000Y1926330D01*
X2922000D01*
G01X2947000D02*
X2962000Y1878000D01*
G01X3002000Y1978000D02*
Y1878000D01*
X3042000D01*
G01X3102000D02*
Y1978000D01*
X3090000Y1958000D01*
G01Y1878000D02*
X3114000D01*
G01X2432000Y1885000D02*
Y1985000D01*
X2457000D01*
X2465000Y1980000D01*
X2470000Y1973330D01*
X2472000Y1960000D01*
X2470000Y1946670D01*
X2464000Y1938330D01*
X2457000Y1933330D01*
X2432000D01*
G01X2457000D02*
X2472000Y1885000D01*
G01X2510000Y1905000D02*
X2516000Y1893330D01*
X2524000Y1886670D01*
X2533000Y1885000D01*
X2541000Y1886670D01*
X2549000Y1895000D01*
X2554000Y1905000D01*
X2555000Y1915000D01*
X2553000Y1926660D01*
X2546000Y1935000D01*
X2539000Y1938330D01*
X2530000D01*
G01X2539000D02*
X2545000Y1943330D01*
X2550000Y1951660D01*
X2552000Y1961670D01*
X2550000Y1971670D01*
X2545000Y1980000D01*
X2536000Y1985000D01*
X2527000Y1983330D01*
X2518000Y1976670D01*
G01X2452100Y2714060D02*
X2454220Y2726930D01*
X2462680Y2738190D01*
X2475380Y2747840D01*
X2490200Y2754280D01*
X2507130Y2757500D01*
X2524070D01*
X2541000Y2754280D01*
X2555820Y2747840D01*
X2568520Y2738190D01*
X2576980Y2726930D01*
X2579100Y2714060D01*
X2576980Y2701190D01*
X2568520Y2689930D01*
X2555820Y2680280D01*
X2541000Y2673840D01*
X2524070Y2670620D01*
X2507130D01*
X2490200Y2673840D01*
X2475380Y2680280D01*
X2462680Y2689930D01*
X2454220Y2701190D01*
X2452100Y2714060D01*
G01X2485970Y2701190D02*
X2452100Y2681890D01*
G01Y2584520D02*
X2579100D01*
X2553700Y2603820D01*
G01X2452100D02*
Y2565220D01*
G01X2910770Y2804000D02*
Y2867500D01*
X2927030D01*
X2932450Y2864320D01*
X2936510Y2856920D01*
X2937870Y2848450D01*
X2936510Y2839980D01*
X2933130Y2833630D01*
X2927030Y2830460D01*
X2910770D01*
G01X2965300Y2813520D02*
X2969360Y2808230D01*
X2974100Y2805060D01*
X2980200Y2804000D01*
X2986300Y2806120D01*
X2991040Y2810350D01*
X2994420Y2817760D01*
X2995100Y2826220D01*
X2993750Y2834690D01*
X2990360Y2839980D01*
X2985620Y2844220D01*
X2980880Y2845270D01*
X2976140Y2844220D01*
X2970040Y2839980D01*
X2972070Y2867500D01*
X2990360D01*
G01X2687000Y3075000D02*
X2787000D01*
Y3050000D01*
X2782000Y3042000D01*
X2775330Y3037000D01*
X2762000Y3035000D01*
X2748670Y3037000D01*
X2740330Y3043000D01*
X2735330Y3050000D01*
Y3075000D01*
G01Y3050000D02*
X2687000Y3035000D01*
G01Y2975000D02*
X2787000D01*
X2767000Y2987000D01*
G01X2687000D02*
Y2963000D01*
G01X2970260Y3469000D02*
X2957390Y3471120D01*
X2946130Y3479580D01*
X2936480Y3492280D01*
X2930040Y3507100D01*
X2926820Y3524030D01*
Y3540970D01*
X2930040Y3557900D01*
X2936480Y3572720D01*
X2946130Y3585420D01*
X2957390Y3593880D01*
X2970260Y3596000D01*
X2983130Y3593880D01*
X2994390Y3585420D01*
X3004040Y3572720D01*
X3010480Y3557900D01*
X3013700Y3540970D01*
Y3524030D01*
X3010480Y3507100D01*
X3004040Y3492280D01*
X2994390Y3479580D01*
X2983130Y3471120D01*
X2970260Y3469000D01*
G01X2983130Y3502870D02*
X3002430Y3469000D01*
G01X3096580D02*
X3099800Y3496510D01*
X3104630Y3519800D01*
X3111060Y3540970D01*
X3119100Y3564250D01*
X3131970Y3596000D01*
X3067630D01*
G01X2478000Y3504000D02*
Y3604000D01*
X2503000D01*
X2511000Y3599000D01*
X2516000Y3592330D01*
X2518000Y3579000D01*
X2516000Y3565670D01*
X2510000Y3557330D01*
X2503000Y3552330D01*
X2478000D01*
G01X2503000D02*
X2518000Y3504000D01*
G01X2559000D02*
Y3604000D01*
X2597000D01*
G01X2583000Y3555670D02*
X2559000D01*
G01X2796000Y3790000D02*
Y3890000D01*
X2821000D01*
X2829000Y3885000D01*
X2834000Y3878330D01*
X2836000Y3865000D01*
X2834000Y3851670D01*
X2828000Y3843330D01*
X2821000Y3838330D01*
X2796000D01*
G01X2821000D02*
X2836000Y3790000D01*
G01X2874000D02*
Y3890000D01*
X2894000D01*
X2902000Y3885000D01*
X2908000Y3878330D01*
X2913000Y3868330D01*
X2917000Y3856660D01*
X2918000Y3840000D01*
X2917000Y3823330D01*
X2913000Y3811670D01*
X2908000Y3801660D01*
X2902000Y3795000D01*
X2894000Y3790000D01*
X2874000D01*
G01X2957000Y3831660D02*
X2964000Y3843330D01*
X2970000Y3850000D01*
X2978000Y3853330D01*
X2985000Y3850000D01*
X2990000Y3843330D01*
X2994000Y3833330D01*
X2995000Y3821670D01*
X2994000Y3811670D01*
X2990000Y3801660D01*
X2984000Y3793330D01*
X2977000Y3790000D01*
X2969000Y3793330D01*
X2962000Y3803330D01*
X2958000Y3818330D01*
X2957000Y3835000D01*
X2959000Y3856660D01*
X2962000Y3868330D01*
X2967000Y3880000D01*
X2974000Y3888330D01*
X2981000Y3890000D01*
X2988000Y3886670D01*
X2993000Y3878330D01*
G01X3731100Y892290D02*
X3716050Y880440D01*
X3706020Y866220D01*
X3701000Y849620D01*
X3706020Y830660D01*
X3716050Y816430D01*
X3731100Y802210D01*
X3751170Y797470D01*
X3851500D01*
G01X3826420Y699420D02*
X3841460Y685200D01*
X3848990Y668600D01*
X3851500Y649640D01*
X3846480Y625930D01*
X3833940Y609340D01*
X3818890Y604600D01*
X3803840Y606970D01*
X3791300Y616450D01*
X3766220Y663860D01*
X3748660Y685200D01*
X3723570Y699420D01*
X3701000Y704160D01*
Y604600D01*
G01X3402000Y1513000D02*
Y1613000D01*
X3427000D01*
X3435000Y1608000D01*
X3440000Y1601330D01*
X3442000Y1588000D01*
X3440000Y1574670D01*
X3434000Y1566330D01*
X3427000Y1561330D01*
X3402000D01*
G01X3427000D02*
X3442000Y1513000D01*
G01X3482000Y1613000D02*
Y1513000D01*
X3522000D01*
G01X3560000Y1533000D02*
X3566000Y1521330D01*
X3574000Y1514670D01*
X3583000Y1513000D01*
X3591000Y1514670D01*
X3599000Y1523000D01*
X3604000Y1533000D01*
X3605000Y1543000D01*
X3603000Y1554660D01*
X3596000Y1563000D01*
X3589000Y1566330D01*
X3580000D01*
G01X3589000D02*
X3595000Y1571330D01*
X3600000Y1579660D01*
X3602000Y1589670D01*
X3600000Y1599670D01*
X3595000Y1608000D01*
X3586000Y1613000D01*
X3577000Y1611330D01*
X3568000Y1604670D01*
G01X3740100Y2153290D02*
X3725050Y2141440D01*
X3715020Y2127220D01*
X3710000Y2110620D01*
X3715020Y2091660D01*
X3725050Y2077430D01*
X3740100Y2063210D01*
X3760170Y2058470D01*
X3860500D01*
G01X3740100Y1967530D02*
X3722540Y1953310D01*
X3712510Y1934350D01*
X3710000Y1913010D01*
X3712510Y1894040D01*
X3725050Y1875080D01*
X3740100Y1863230D01*
X3755150Y1860860D01*
X3772700Y1865600D01*
X3785250Y1882190D01*
X3790270Y1898790D01*
Y1920120D01*
G01Y1898790D02*
X3797790Y1884560D01*
X3810330Y1872710D01*
X3825380Y1867970D01*
X3840430Y1872710D01*
X3852970Y1884560D01*
X3860500Y1905900D01*
X3857990Y1927230D01*
X3847960Y1948570D01*
G01X3746100Y3106290D02*
X3731050Y3094440D01*
X3721020Y3080220D01*
X3716000Y3063620D01*
X3721020Y3044660D01*
X3731050Y3030430D01*
X3746100Y3016210D01*
X3766170Y3011470D01*
X3866500D01*
G01X3716000Y2868380D02*
X3866500D01*
X3836400Y2896830D01*
G01X3716000D02*
Y2839940D01*
G01X3279670Y3084000D02*
X3284670Y3090000D01*
X3288000Y3097000D01*
Y3105000D01*
X3283000Y3114000D01*
X3274670Y3121000D01*
X3264670Y3126000D01*
X3248000Y3130000D01*
X3233000Y3131000D01*
X3218000Y3129000D01*
X3208000Y3126000D01*
X3198000Y3120000D01*
X3191330Y3113000D01*
X3188000Y3106000D01*
Y3099000D01*
X3191330Y3092000D01*
X3196330Y3086000D01*
X3203000Y3081000D01*
G01X3229660Y3045000D02*
X3241330Y3038000D01*
X3248000Y3032000D01*
X3251330Y3024000D01*
X3248000Y3017000D01*
X3241330Y3012000D01*
X3231330Y3008000D01*
X3219670Y3007000D01*
X3209670Y3008000D01*
X3199660Y3012000D01*
X3191330Y3018000D01*
X3188000Y3025000D01*
X3191330Y3033000D01*
X3201330Y3040000D01*
X3216330Y3044000D01*
X3233000Y3045000D01*
X3254660Y3043000D01*
X3266330Y3040000D01*
X3278000Y3035000D01*
X3286330Y3028000D01*
X3288000Y3021000D01*
X3284670Y3014000D01*
X3276330Y3009000D01*
G01X3684000Y3790030D02*
X3834500D01*
Y3742620D01*
X3826970Y3723660D01*
X3816940Y3709430D01*
X3801890Y3697580D01*
X3784330Y3688100D01*
X3759250Y3685730D01*
X3734170Y3688100D01*
X3716610Y3697580D01*
X3701550Y3709430D01*
X3691520Y3723660D01*
X3684000Y3742620D01*
Y3790030D01*
G01X3746700Y3592420D02*
X3764270Y3575830D01*
X3774300Y3561600D01*
X3779310Y3542640D01*
X3774300Y3526040D01*
X3764270Y3514190D01*
X3749220Y3504710D01*
X3731660Y3502340D01*
X3716610Y3504710D01*
X3701550Y3514190D01*
X3689020Y3528420D01*
X3684000Y3545010D01*
X3689020Y3563970D01*
X3704060Y3580570D01*
X3726640Y3590050D01*
X3751720Y3592420D01*
X3784330Y3587680D01*
X3801890Y3580570D01*
X3819450Y3568720D01*
X3831990Y3552120D01*
X3834500Y3535530D01*
X3829480Y3518930D01*
X3816940Y3507080D01*
G54D12*
G01X333280Y1614810D02*
X734600D01*
G01D02*
Y1505590D01*
G01D02*
X756190Y1484000D01*
G01D02*
X734600Y1462410D01*
G01D02*
Y1353190D01*
G01D02*
X333280D01*
G01D02*
Y1614810D01*
G01X2602720Y579650D02*
X2201400D01*
G01D02*
Y691410D01*
G01D02*
X2179810Y713000D01*
G01D02*
X2201400Y734590D01*
G01D02*
Y846350D01*
G01D02*
X2602720D01*
G01D02*
Y579650D01*
G01X3294500Y272130D02*
X3675500D01*
G01D02*
Y1148430D01*
G01X3294500D02*
Y272130D01*
G01X3310500Y2502870D02*
Y1626570D01*
G01D02*
X3691500D01*
G01D02*
Y2502870D01*
G01X3675500Y1148430D02*
X3294500D01*
G01X3691500Y2502870D02*
X3310500D01*
G01X3312500Y2554130D02*
X3693500D01*
G01D02*
Y3430430D01*
G01X3312500D02*
Y2554130D01*
G01X3693500Y3430430D02*
X3312500D01*
G01X3642350Y3881720D02*
Y3480400D01*
G01D02*
X3530590D01*
G01D02*
X3509000Y3458810D01*
G01D02*
X3487410Y3480400D01*
G01D02*
X3375650D01*
G01D02*
Y3881720D01*
G01D02*
X3642350D01*
G54D13*
G01X714740Y3013720D02*
X1019540D01*
Y2871480D01*
X714740D01*
Y3013720D01*
G01X1203280Y426740D02*
Y731540D01*
X1345520D01*
Y426740D01*
X1203280D01*
G01X1581740Y2733720D02*
X1886540D01*
Y2591480D01*
X1581740D01*
Y2733720D01*
G01X1333280Y2917740D02*
Y3222540D01*
X1475520D01*
Y2917740D01*
X1333280D01*
G01X1746280Y894740D02*
Y1199540D01*
X1888520D01*
Y894740D01*
X1746280D01*
G01X2108740Y2329720D02*
X2413540D01*
Y2187480D01*
X2108740D01*
Y2329720D01*
G01X2111740Y2787720D02*
X2416540D01*
Y2645480D01*
X2111740D01*
Y2787720D01*
G01X1904280Y3079740D02*
Y3384540D01*
X2046520D01*
Y3079740D01*
X1904280D01*
G01X2923280Y3152740D02*
Y3457540D01*
X3065520D01*
Y3152740D01*
X2923280D01*
M02*
